<svg width="143" height="22" viewBox="0 0 143 22" fill="none" xmlns="http://www.w3.org/2000/svg">
<path d="M20.3138 0.0826624V0.696726C19.6532 0.779388 19.1577 0.944713 18.8274 1.20451C18.4971 1.4643 18.273 1.86581 18.1668 2.42083C18.0488 2.97585 18.0017 3.75523 18.0017 4.7708V22C17.7539 21.9764 17.5062 21.9646 17.2467 21.9646C16.9871 21.9646 16.7158 21.9646 16.4327 22L3.04353 5.01879V16.8749C3.04353 18.0086 3.10251 18.8824 3.23228 19.4847C3.35024 20.087 3.63336 20.5239 4.04624 20.7837C4.47092 21.0435 5.13153 21.2206 6.03987 21.3269V21.941C5.65058 21.8937 5.13153 21.8701 4.49451 21.8583C3.8575 21.8583 3.26767 21.8465 2.70143 21.8465C2.22956 21.8465 1.7459 21.8465 1.25044 21.8583C0.754984 21.8583 0.342102 21.8937 0.0117966 21.941V21.3269C0.672408 21.2206 1.16787 21.0435 1.48637 20.7955C1.81668 20.5475 2.04082 20.146 2.14699 19.5792C2.26495 19.0123 2.31214 18.233 2.31214 17.2528V3.35373C2.31214 2.59796 2.25316 2.03113 2.14699 1.66506C2.02902 1.31079 1.80488 1.0628 1.46278 0.921095C1.12068 0.791197 0.637018 0.708534 0 0.684917V0.0826624C0.330306 0.10628 0.743187 0.129898 1.23865 0.141707C1.7341 0.165325 2.21777 0.177134 2.68963 0.177134C3.1615 0.177134 3.65695 0.177134 4.10523 0.141707C4.5535 0.118089 4.96638 0.0944713 5.34387 0.0826624L17.2821 14.8084V5.14868C17.2821 4.01503 17.2231 3.15298 17.0933 2.53892C16.9753 1.93666 16.6922 1.49973 16.2793 1.22813C15.8547 0.956522 15.1941 0.779388 14.2857 0.708534V0.0826624C14.675 0.10628 15.1941 0.129898 15.8311 0.141707C16.4681 0.165325 17.0697 0.177134 17.6124 0.177134C18.1078 0.177134 18.5915 0.177134 19.0751 0.141707C19.5588 0.118089 19.9599 0.0944713 20.2902 0.0826624" fill="#A51C30"/>
<path d="M38.7637 0.0826624C38.6811 0.991948 38.6222 1.86581 38.5986 2.70424C38.575 3.54267 38.5514 4.19216 38.5514 4.65271C38.5514 5.06602 38.5514 5.45572 38.575 5.82179C38.5986 6.18787 38.6222 6.4949 38.6339 6.74289H37.9262C37.7256 5.24316 37.4071 4.05046 36.9706 3.1766C36.5341 2.30274 35.9797 1.68867 35.2955 1.3226C34.5995 0.968331 33.7973 0.779388 32.8772 0.779388H31.615C31.0133 0.779388 30.5651 0.826624 30.2583 0.932904C29.9516 1.03918 29.7393 1.23994 29.6449 1.54697C29.5388 1.854 29.4916 2.32635 29.4916 2.96404V19.0123C29.4916 19.65 29.5388 20.1224 29.6449 20.4294C29.7511 20.7364 29.9516 20.9372 30.2583 21.0435C30.5651 21.1498 31.0251 21.197 31.615 21.197H33.1249C34.0451 21.197 34.8708 20.9962 35.5786 20.5947C36.2864 20.1932 36.8881 19.5083 37.3953 18.54C37.9026 17.5717 38.28 16.2609 38.5514 14.6194H39.2592C39.2002 15.2807 39.1648 16.1428 39.1648 17.2174C39.1648 17.6897 39.1648 18.3629 39.2002 19.2249C39.2238 20.087 39.2828 20.9844 39.3889 21.9173C38.339 21.8701 37.1594 21.8465 35.8382 21.8347C34.5169 21.8347 33.3491 21.8229 32.3228 21.8229H30.3527C29.5505 21.8229 28.6894 21.8229 27.7693 21.8347C26.8373 21.8347 25.9054 21.8583 24.9617 21.8701C24.0179 21.8701 23.1214 21.8937 22.2838 21.9173V21.3033C22.9444 21.256 23.4399 21.1852 23.7702 21.0553C24.1005 20.9372 24.3246 20.6892 24.4308 20.3113C24.5488 19.9452 24.596 19.3902 24.596 18.6463V3.35373C24.596 2.58615 24.537 2.03113 24.4308 1.66506C24.3128 1.31079 24.0887 1.0628 23.7584 0.921095C23.4163 0.791197 22.9326 0.708534 22.2956 0.684917V0.0826624C23.1332 0.10628 24.0297 0.118089 24.9735 0.129898C25.9172 0.129898 26.8491 0.153516 27.7811 0.165325C28.7012 0.165325 29.5741 0.177134 30.3645 0.177134H32.3345C33.2783 0.177134 34.3518 0.177134 35.555 0.165325C36.7583 0.165325 37.8318 0.129898 38.7755 0.0826624M33.9625 11.2539H28.5714V10.6398H33.9625V11.2539ZM34.859 6.56575C34.7765 7.73483 34.7411 8.63231 34.7529 9.24638C34.7529 9.86044 34.7647 10.4273 34.7647 10.9469C34.7647 11.4665 34.7647 12.0333 34.8 12.6473C34.8236 13.2614 34.8708 14.1589 34.9534 15.328H34.2456C34.1394 14.6076 33.9507 13.9345 33.6794 13.3204C33.3962 12.7064 33.007 12.1986 32.4879 11.8207C31.9807 11.4428 31.3082 11.2539 30.4825 11.2539V10.6398C31.0959 10.6398 31.6268 10.5099 32.0514 10.2501C32.4879 9.99034 32.8418 9.65969 33.1131 9.23457C33.3962 8.80945 33.6086 8.36071 33.7737 7.88835C33.9389 7.41599 34.0569 6.97906 34.1394 6.56575H34.859Z" fill="#A51C30"/>
<path d="M41.8072 0.0826624C42.3263 0.10628 43.0105 0.129898 43.8834 0.141707C44.7564 0.165325 45.6293 0.177134 46.4905 0.177134C47.4814 0.177134 48.4369 0.177134 49.3571 0.141707C50.2772 0.118089 50.9378 0.10628 51.3271 0.10628C54.1819 0.10628 56.3289 0.673108 57.7445 1.80676C59.1601 2.94042 59.8679 4.40472 59.8679 6.18787C59.8679 6.93183 59.7263 7.71122 59.4314 8.51422C59.1483 9.32904 58.6528 10.0848 57.9686 10.7697C57.2844 11.4546 56.3407 12.0215 55.1492 12.4466C53.9578 12.8835 52.4596 13.0961 50.6429 13.0961H47.4932V12.482H50.3362C51.5513 12.482 52.4714 12.1986 53.0966 11.6436C53.7218 11.0886 54.1583 10.3564 54.3942 9.44713C54.6302 8.53784 54.7481 7.5577 54.7481 6.51852C54.7481 4.57005 54.465 3.10574 53.887 2.13741C53.309 1.16908 52.3298 0.684917 50.926 0.684917C50.1239 0.684917 49.6048 0.86205 49.3689 1.20451C49.1329 1.55878 49.015 2.26731 49.015 3.33011V18.4573C49.015 19.2603 49.0976 19.8626 49.2627 20.2523C49.4279 20.642 49.7464 20.9018 50.2182 21.0199C50.6901 21.1379 51.3861 21.2206 52.318 21.2324V21.9173C51.681 21.8937 50.8553 21.8701 49.8525 21.8583C48.838 21.8347 47.7881 21.8229 46.6792 21.8229C45.7945 21.8229 44.9333 21.8229 44.084 21.8583C43.2464 21.8819 42.4796 21.9055 41.8072 21.9173V21.3033C42.4678 21.256 42.9633 21.1734 43.2936 21.0553C43.6239 20.9254 43.8481 20.6892 43.9542 20.3113C44.0722 19.9452 44.1194 19.3902 44.1194 18.6463V3.35373C44.1194 2.59796 44.0604 2.03113 43.9542 1.66506C43.8363 1.31079 43.6121 1.0628 43.2818 0.921095C42.9397 0.791197 42.4561 0.708534 41.819 0.684917V0.0826624H41.8072Z" fill="#A51C30"/>
<path d="M71.1337 0.0826624V0.696726C70.4377 0.720343 69.9068 0.791197 69.5411 0.932904C69.1872 1.0628 68.9395 1.31079 68.8215 1.67687C68.7035 2.03113 68.6328 2.59796 68.6328 3.36554V19.0478C68.6328 19.6855 68.68 20.1578 68.7743 20.4648C68.8687 20.7719 69.0574 20.9844 69.3288 21.0789C69.6119 21.1852 70.0248 21.2324 70.5792 21.2324H72.0892C72.7852 21.2324 73.4458 21.0671 74.0592 20.7364C74.6726 20.4058 75.2271 19.9452 75.7225 19.3312C76.218 18.7289 76.6309 17.9968 76.9612 17.1583C77.2915 16.3199 77.5392 15.3752 77.7044 14.3478H78.4122C78.3532 15.0446 78.3178 15.9538 78.3178 17.0639C78.3178 17.5362 78.3178 18.233 78.3532 19.1304C78.3768 20.0397 78.4358 20.9726 78.5419 21.941C77.492 21.8937 76.3124 21.8701 74.9912 21.8583C73.6699 21.8583 72.5021 21.8465 71.4758 21.8465H69.5057C68.7036 21.8465 67.8424 21.8465 66.9223 21.8583C65.9903 21.8583 65.0584 21.8819 64.1147 21.8937C63.1709 21.8937 62.2744 21.9173 61.4368 21.941V21.3269C62.0974 21.2797 62.5929 21.197 62.9232 21.0789C63.2535 20.949 63.4776 20.7128 63.5838 20.3349C63.7018 19.9689 63.749 19.4138 63.749 18.6699V3.35373C63.749 2.59796 63.69 2.03113 63.5838 1.66506C63.4659 1.31079 63.2417 1.0628 62.9114 0.921095C62.5693 0.791197 62.0856 0.708534 61.4486 0.684917V0.0826624C61.9677 0.10628 62.6519 0.129898 63.5248 0.141707C64.3978 0.165325 65.3297 0.177134 66.3206 0.177134C67.229 0.177134 68.1137 0.177134 68.9867 0.141707C69.8596 0.118089 70.5792 0.0944713 71.1572 0.0826624" fill="#A51C30"/>
<path d="M90.5745 0.0236178L98.0654 19.3548C98.3485 20.0988 98.6788 20.6065 99.0327 20.8782C99.3866 21.1498 99.7169 21.3033 100 21.3269V21.941C99.3866 21.8937 98.6552 21.8701 97.8294 21.8583C96.9919 21.8583 96.1543 21.8465 95.3167 21.8465C94.373 21.8465 93.4765 21.8465 92.6389 21.8583C91.8013 21.8583 91.1289 21.8937 90.6335 21.941V21.3269C91.6834 21.2797 92.344 21.1025 92.6271 20.7837C92.9102 20.4648 92.8394 19.7799 92.4266 18.7289L87.1771 4.3693L87.7315 3.56629L83.0482 15.7885C82.6 16.9222 82.3287 17.8433 82.2343 18.5636C82.1399 19.2839 82.1871 19.839 82.3876 20.2287C82.5882 20.6184 82.8949 20.89 83.3432 21.0435C83.7796 21.197 84.3105 21.2915 84.9357 21.3033V21.9173C84.2633 21.8701 83.6145 21.8465 82.9893 21.8347C82.3758 21.8347 81.7506 21.8229 81.1136 21.8229C80.6653 21.8229 80.2289 21.8229 79.8278 21.8347C79.4267 21.8347 79.0728 21.8701 78.7661 21.9173V21.3033C79.2026 21.2206 79.639 20.949 80.0873 20.4648C80.5356 19.9925 80.9838 19.1895 81.4085 18.0558L88.4393 0C88.7696 0.0236178 89.1235 0.0354267 89.501 0.0354267C89.8785 0.0354267 90.2324 0.0354267 90.5627 0M92.7215 13.0252V13.6393H83.5319L83.8386 13.0252H92.7215Z" fill="#A51C30"/>
<!-- <path d="M104 10C104 6.68629 106.686 4 110 4H137C140.314 4 143 6.68629 143 10V16C143 19.3137 140.314 22 137 22H104V10Z" fill="url(#paint0_linear_10575_71549)"/> -->
<!-- <path d="M113.056 8.718C113.879 8.718 114.568 8.796 115.123 8.952C115.686 9.09933 116.107 9.34633 116.384 9.693C116.67 10.031 116.813 10.4903 116.813 11.071C116.813 11.4177 116.757 11.734 116.644 12.02C116.531 12.306 116.367 12.54 116.15 12.722C115.942 12.904 115.686 13.021 115.383 13.073V13.138C115.695 13.1987 115.977 13.307 116.228 13.463C116.479 13.619 116.679 13.8443 116.826 14.139C116.973 14.4337 117.047 14.8237 117.047 15.309C117.047 15.8723 116.908 16.3577 116.631 16.765C116.362 17.1637 115.972 17.4713 115.461 17.688C114.95 17.896 114.343 18 113.641 18H110.17V8.718H113.056ZM113.277 12.397C113.849 12.397 114.243 12.306 114.46 12.124C114.685 11.942 114.798 11.6777 114.798 11.331C114.798 10.9757 114.668 10.72 114.408 10.564C114.148 10.408 113.736 10.33 113.173 10.33H112.133V12.397H113.277ZM112.133 13.957V16.375H113.42C114.009 16.375 114.421 16.2623 114.655 16.037C114.889 15.803 115.006 15.4953 115.006 15.114C115.006 14.88 114.954 14.6763 114.85 14.503C114.755 14.3297 114.586 14.1953 114.343 14.1C114.1 14.0047 113.771 13.957 113.355 13.957H112.133ZM121.283 10.772C121.942 10.772 122.505 10.8977 122.973 11.149C123.45 11.4003 123.818 11.7643 124.078 12.241C124.338 12.7177 124.468 13.3027 124.468 13.996V14.932H119.892C119.91 15.478 120.07 15.907 120.373 16.219C120.685 16.531 121.114 16.687 121.66 16.687C122.12 16.687 122.536 16.6437 122.908 16.557C123.281 16.4617 123.667 16.3187 124.065 16.128V17.623C123.719 17.7963 123.35 17.922 122.96 18C122.579 18.0867 122.115 18.13 121.569 18.13C120.859 18.13 120.23 18 119.684 17.74C119.138 17.4713 118.709 17.0683 118.397 16.531C118.085 15.9937 117.929 15.3177 117.929 14.503C117.929 13.671 118.068 12.982 118.345 12.436C118.631 11.8813 119.026 11.4653 119.528 11.188C120.031 10.9107 120.616 10.772 121.283 10.772ZM121.296 12.15C120.924 12.15 120.612 12.2713 120.36 12.514C120.118 12.7567 119.975 13.1337 119.931 13.645H122.648C122.648 13.359 122.596 13.1033 122.492 12.878C122.397 12.6527 122.25 12.475 122.05 12.345C121.851 12.215 121.6 12.15 121.296 12.15ZM128.639 16.583C128.856 16.583 129.064 16.5613 129.263 16.518C129.462 16.4747 129.662 16.4227 129.861 16.362V17.805C129.653 17.8917 129.393 17.9653 129.081 18.026C128.778 18.0953 128.444 18.13 128.08 18.13C127.655 18.13 127.274 18.0607 126.936 17.922C126.607 17.7833 126.342 17.545 126.143 17.207C125.952 16.8603 125.857 16.3837 125.857 15.777V12.358H124.934V11.539L126 10.889L126.559 9.394H127.794V10.902H129.783V12.358H127.794V15.777C127.794 16.0457 127.872 16.2493 128.028 16.388C128.184 16.518 128.388 16.583 128.639 16.583ZM133.808 10.759C134.761 10.759 135.489 10.967 135.992 11.383C136.503 11.7903 136.759 12.4187 136.759 13.268V18H135.407L135.03 17.038H134.978C134.778 17.2893 134.57 17.4973 134.354 17.662C134.146 17.8267 133.903 17.9437 133.626 18.013C133.357 18.091 133.023 18.13 132.625 18.13C132.209 18.13 131.832 18.052 131.494 17.896C131.164 17.7313 130.904 17.4843 130.714 17.155C130.523 16.817 130.428 16.3923 130.428 15.881C130.428 15.127 130.692 14.5723 131.221 14.217C131.749 13.853 132.542 13.6537 133.6 13.619L134.835 13.58V13.268C134.835 12.8953 134.735 12.6223 134.536 12.449C134.345 12.2757 134.076 12.189 133.73 12.189C133.383 12.189 133.045 12.241 132.716 12.345C132.386 12.4403 132.057 12.5617 131.728 12.709L131.091 11.396C131.472 11.1967 131.892 11.0407 132.352 10.928C132.82 10.8153 133.305 10.759 133.808 10.759ZM134.081 14.737C133.457 14.7543 133.023 14.867 132.781 15.075C132.538 15.283 132.417 15.556 132.417 15.894C132.417 16.1887 132.503 16.401 132.677 16.531C132.85 16.6523 133.075 16.713 133.353 16.713C133.769 16.713 134.12 16.5917 134.406 16.349C134.692 16.0977 134.835 15.7467 134.835 15.296V14.711L134.081 14.737Z" fill="white"/> -->
<defs>
<linearGradient id="paint0_linear_10575_71549" x1="94.5645" y1="3.47059" x2="139.951" y2="27.2824" gradientUnits="userSpaceOnUse">
<stop stop-color="#A51C30"/>
<stop offset="0.7651" stop-color="#9933FF"/>
<stop offset="1" stop-color="#9933FF"/>
</linearGradient>
</defs>
</svg>
