<svg width="90" height="24" viewBox="0 0 1200 320" fill="none" xmlns="http://www.w3.org/2000/svg"><path d="M652 318C739.813 318 811 246.813 811 159C811 71.1867 739.813 0 652 0C564.187 0 493 71.1867 493 159C493 246.813 564.187 318 652 318Z" fill="black"></path><path d="M285.558 35.0049V122.35H261.657V35.0049H212.89V284.488H261.657V171.16H285.558V284.488H334.315V35.0049H285.558Z" fill="black"></path><path d="M879.313 284.488V34.9951H830.555V284.488H879.313Z" fill="black"></path><path d="M150.047 35.0049L136.199 174.613L122.361 35.0049H122.342H76.4615H76.452L62.6046 174.613L48.7573 35.0049H0L28.6695 284.488H47.7825H77.4268H84.1163L99.4067 175.159L114.688 284.488H121.377H151.031H170.134L198.804 35.0049H150.047Z" fill="black"></path><path d="M434.553 284.488H483.31L458.463 34.9951H372.799L347.952 284.488H396.709L400.599 245.417H430.654L434.544 284.488H434.553ZM404.928 202.031L415.631 75.3957L426.335 202.031H404.918H404.928Z" fill="black"></path><path d="M1200 83.8147V35.0049H1148.87H1107.89H1100.11V284.488H1107.89H1148.87H1200V235.678H1148.87V177.455H1200V128.645H1148.87V83.8147H1200Z" fill="black"></path><path d="M1037.8 35.0049H1012.22L989.805 176.345L967.376 35.0049H941.803H893.045V284.488H941.803V113.319L967.787 284.545H989.47H990.13H1011.81L1037.8 113.319V284.488H1086.55V35.0049H1037.8Z" fill="black"></path><path d="M706.352 35.2539H676.554H627.797H598V84.0637H627.797V284.747H676.554V84.0637H706.352V35.2539Z" fill="white"></path></svg>